<svg id="Capa_1" enable-background="new 0 0 512 512" height="512" viewBox="0 0 512 512" width="512" xmlns="http://www.w3.org/2000/svg"><g><g><path d="m411.565 504.5h-311.13c-16.737 0-30.305-13.568-30.305-30.305v-436.39c0-16.737 13.568-30.305 30.305-30.305h311.13c16.737 0 30.305 13.568 30.305 30.305v436.39c0 16.737-13.568 30.305-30.305 30.305z" fill="#e49542"/></g><g><path d="m411.565 7.5h-32.325c16.737 0 30.305 13.568 30.305 30.305v436.39c0 16.737-13.568 30.305-30.305 30.305h32.325c16.737 0 30.305-13.568 30.305-30.305v-436.39c0-16.737-13.568-30.305-30.305-30.305z" fill="#e28424"/></g><g><path d="m359.037 167.106h50.508v50.508h-50.508z" fill="#ecf4ff" transform="matrix(0 1 -1 0 576.65 -191.931)"/></g><g><path d="m274.183 167.106h50.508v50.508h-50.508z" fill="#ecf4ff" transform="matrix(0 1 -1 0 491.797 -107.077)"/></g><g><path d="m102.455 167.106h50.508v50.508h-50.508z" fill="#ecf4ff" transform="matrix(0 1 -1 0 320.069 64.65)"/></g><g><path d="m187.309 167.106h50.508v50.508h-50.508z" fill="#ecf4ff" transform="matrix(0 1 -1 0 404.923 -20.203)"/></g><g><path d="m102.455 100.435v-40.407c0-11.158 9.045-20.203 20.203-20.203h266.683c11.158 0 20.203 9.045 20.203 20.203v40.407c0 11.158-9.045 20.203-20.203 20.203h-266.682c-11.158 0-20.204-9.045-20.204-20.203z" fill="#9dc6fb"/></g><g><path d="m389.341 39.825h-30.305c11.158 0 20.203 9.045 20.203 20.203v40.407c0 11.158-9.045 20.203-20.203 20.203h30.305c11.158 0 20.203-9.045 20.203-20.203v-40.407c.001-11.158-9.045-20.203-20.203-20.203z" fill="#80b4fb"/></g><g><path d="m359.037 251.959h50.508v50.508h-50.508z" fill="#ecf4ff" transform="matrix(0 1 -1 0 661.504 -107.077)"/></g><g><path d="m274.183 251.959h50.508v50.508h-50.508z" fill="#ecf4ff" transform="matrix(0 1 -1 0 576.65 -22.224)"/></g><g><path d="m102.455 251.959h50.508v50.508h-50.508z" fill="#ecf4ff" transform="matrix(0 1 -1 0 404.923 149.504)"/></g><g><path d="m187.309 251.959h50.508v50.508h-50.508z" fill="#ecf4ff" transform="matrix(0 1 -1 0 489.776 64.65)"/></g><g><path d="m274.183 336.813h50.508v50.508h-50.508z" fill="#ecf4ff" transform="matrix(0 1 -1 0 661.504 62.63)"/></g><g><path d="m102.455 336.813h50.508v50.508h-50.508z" fill="#ecf4ff" transform="matrix(0 1 -1 0 489.776 234.358)"/></g><g><path d="m187.309 336.813h50.508v50.508h-50.508z" fill="#ecf4ff" transform="matrix(0 1 -1 0 574.63 149.504)"/></g><g><path d="m359.037 336.813h50.508v135.362h-50.508z" fill="#f6e266"/></g><g><path d="m274.183 421.667h50.508v50.508h-50.508z" fill="#ecf4ff" transform="matrix(0 1 -1 0 746.358 147.484)"/></g><g><path d="m102.455 421.667h50.508v50.508h-50.508z" fill="#ecf4ff" transform="matrix(0 1 -1 0 574.63 319.211)"/></g><g><path d="m187.309 421.667h50.508v50.508h-50.508z" fill="#ecf4ff" transform="matrix(0 1 -1 0 659.484 234.358)"/></g><g><path d="m411.57 0h-311.14c-20.843 0-37.8 16.957-37.8 37.8v334c0 4.142 3.358 7.5 7.5 7.5s7.5-3.358 7.5-7.5v-334c0-12.572 10.228-22.8 22.8-22.8h311.14c12.572 0 22.8 10.228 22.8 22.8v60.7c0 4.142 3.357 7.5 7.5 7.5s7.5-3.358 7.5-7.5v-60.7c0-20.843-16.957-37.8-37.8-37.8z"/><path d="m441.87 126c-4.143 0-7.5 3.358-7.5 7.5v340.7c0 12.572-10.228 22.8-22.8 22.8h-311.14c-12.572 0-22.8-10.228-22.8-22.8v-67.4c0-4.142-3.358-7.5-7.5-7.5s-7.5 3.358-7.5 7.5v67.4c0 20.843 16.957 37.8 37.8 37.8h311.14c20.843 0 37.8-16.957 37.8-37.8v-340.7c0-4.142-3.357-7.5-7.5-7.5z"/><path d="m389.34 32.33h-266.68c-15.274 0-27.7 12.426-27.7 27.7v40.4c0 15.279 12.426 27.71 27.7 27.71h23.733c4.142 0 7.5-3.358 7.5-7.5s-3.358-7.5-7.5-7.5h-23.733c-7.003 0-12.7-5.702-12.7-12.71v-40.4c0-7.002 5.697-12.7 12.7-12.7h266.68c7.003 0 12.7 5.697 12.7 12.7v40.4c0 7.008-5.697 12.71-12.7 12.71h-207.947c-4.142 0-7.5 3.358-7.5 7.5s3.358 7.5 7.5 7.5h207.947c15.274 0 27.7-12.431 27.7-27.71v-40.4c0-15.274-12.426-27.7-27.7-27.7z"/><path d="m417.045 167.105c0-4.142-3.357-7.5-7.5-7.5h-50.509c-4.143 0-7.5 3.358-7.5 7.5v50.508c0 4.142 3.357 7.5 7.5 7.5h50.509c4.143 0 7.5-3.358 7.5-7.5zm-15 43.009h-35.509v-35.508h35.509z"/><path d="m332.191 167.105c0-4.142-3.357-7.5-7.5-7.5h-50.509c-4.143 0-7.5 3.358-7.5 7.5v50.508c0 4.142 3.357 7.5 7.5 7.5h50.509c4.143 0 7.5-3.358 7.5-7.5zm-15 43.009h-35.509v-35.508h35.509z"/><path d="m94.955 217.614c0 4.142 3.358 7.5 7.5 7.5h50.508c4.142 0 7.5-3.358 7.5-7.5v-50.508c0-4.142-3.358-7.5-7.5-7.5h-50.508c-4.142 0-7.5 3.358-7.5 7.5zm15-43.009h35.508v35.508h-35.508z"/><path d="m245.317 167.105c0-4.142-3.358-7.5-7.5-7.5h-50.508c-4.142 0-7.5 3.358-7.5 7.5v50.508c0 4.142 3.358 7.5 7.5 7.5h50.508c4.142 0 7.5-3.358 7.5-7.5zm-15 43.009h-35.508v-35.508h35.508z"/><path d="m417.045 251.959c0-4.142-3.357-7.5-7.5-7.5h-50.509c-4.143 0-7.5 3.358-7.5 7.5v50.508c0 4.142 3.357 7.5 7.5 7.5h50.509c4.143 0 7.5-3.358 7.5-7.5zm-15 43.008h-35.509v-35.508h35.509z"/><path d="m332.191 251.959c0-4.142-3.357-7.5-7.5-7.5h-50.509c-4.143 0-7.5 3.358-7.5 7.5v50.508c0 4.142 3.357 7.5 7.5 7.5h50.509c4.143 0 7.5-3.358 7.5-7.5zm-15 43.008h-35.509v-35.508h35.509z"/><path d="m94.955 302.467c0 4.142 3.358 7.5 7.5 7.5h50.508c4.142 0 7.5-3.358 7.5-7.5v-50.508c0-4.142-3.358-7.5-7.5-7.5h-50.508c-4.142 0-7.5 3.358-7.5 7.5zm15-43.008h35.508v35.508h-35.508z"/><path d="m245.317 251.959c0-4.142-3.358-7.5-7.5-7.5h-50.508c-4.142 0-7.5 3.358-7.5 7.5v50.508c0 4.142 3.358 7.5 7.5 7.5h50.508c4.142 0 7.5-3.358 7.5-7.5zm-15 43.008h-35.508v-35.508h35.508z"/><path d="m332.191 336.813c0-4.142-3.357-7.5-7.5-7.5h-50.509c-4.143 0-7.5 3.358-7.5 7.5v50.508c0 4.142 3.357 7.5 7.5 7.5h50.509c4.143 0 7.5-3.358 7.5-7.5zm-15 43.008h-35.509v-35.508h35.509z"/><path d="m94.955 387.321c0 4.142 3.358 7.5 7.5 7.5h50.508c4.142 0 7.5-3.358 7.5-7.5v-50.508c0-4.142-3.358-7.5-7.5-7.5h-50.508c-4.142 0-7.5 3.358-7.5 7.5zm15-43.008h35.508v35.508h-35.508z"/><path d="m245.317 336.813c0-4.142-3.358-7.5-7.5-7.5h-50.508c-4.142 0-7.5 3.358-7.5 7.5v50.508c0 4.142 3.358 7.5 7.5 7.5h50.508c4.142 0 7.5-3.358 7.5-7.5zm-15 43.008h-35.508v-35.508h35.508z"/><path d="m409.545 329.313h-50.509c-4.143 0-7.5 3.358-7.5 7.5v135.362c0 4.142 3.357 7.5 7.5 7.5h50.509c4.143 0 7.5-3.358 7.5-7.5v-135.362c0-4.142-3.357-7.5-7.5-7.5zm-7.5 135.362h-35.509v-120.362h35.509z"/><path d="m324.691 414.167h-50.509c-4.143 0-7.5 3.358-7.5 7.5v50.508c0 4.142 3.357 7.5 7.5 7.5h50.509c4.143 0 7.5-3.358 7.5-7.5v-50.508c0-4.143-3.357-7.5-7.5-7.5zm-7.5 50.508h-35.509v-35.508h35.509z"/><path d="m94.955 472.175c0 4.142 3.358 7.5 7.5 7.5h50.508c4.142 0 7.5-3.358 7.5-7.5v-50.508c0-4.142-3.358-7.5-7.5-7.5h-50.508c-4.142 0-7.5 3.358-7.5 7.5zm15-43.008h35.508v35.508h-35.508z"/><path d="m237.817 414.167h-50.508c-4.142 0-7.5 3.358-7.5 7.5v50.508c0 4.142 3.358 7.5 7.5 7.5h50.508c4.142 0 7.5-3.358 7.5-7.5v-50.508c0-4.143-3.358-7.5-7.5-7.5zm-7.5 50.508h-35.508v-35.508h35.508z"/></g></g></svg>